<?xml version="1.0" standalone="no"?>
<!DOCTYPE svg PUBLIC "-//W3C//DTD SVG 20010904//EN"
 "http://www.w3.org/TR/2001/REC-SVG-20010904/DTD/svg10.dtd">
<svg version="1.0" xmlns="http://www.w3.org/2000/svg"
 width="3478.000000pt" height="3478.000000pt" viewBox="0 0 3478.000000 3478.000000"
 preserveAspectRatio="xMidYMid meet">
<metadata>
Created by potrace 1.11, written by Peter Selinger 2001-2013
</metadata>
<g transform="translate(0.000000,3478.000000) scale(0.100000,-0.100000)"
fill="#000000" stroke="none">
<path d="M16645 34759 c-667 -30 -1243 -88 -1980 -199 -77 -11 -160 -25 -185
-30 -25 -5 -99 -18 -165 -30 -138 -24 -411 -77 -470 -90 -22 -5 -94 -21 -160
-35 -437 -93 -1083 -266 -1515 -404 -289 -92 -667 -220 -715 -242 -11 -5 -58
-22 -105 -39 -89 -32 -102 -37 -370 -144 -185 -73 -305 -122 -335 -136 -11 -5
-73 -32 -137 -59 -125 -54 -240 -106 -453 -204 -131 -60 -742 -363 -760 -377
-5 -4 -50 -29 -100 -55 -49 -27 -110 -59 -135 -73 -25 -14 -74 -41 -110 -60
-36 -19 -129 -73 -207 -119 -78 -45 -145 -83 -149 -83 -4 0 -15 -6 -23 -14 -9
-8 -38 -26 -66 -42 -153 -84 -935 -588 -1050 -677 -19 -14 -155 -112 -212
-152 -62 -43 -398 -295 -460 -343 -21 -17 -87 -69 -148 -116 -60 -48 -119 -94
-130 -104 -11 -9 -69 -57 -130 -106 -326 -265 -703 -600 -1019 -906 -110 -107
-579 -578 -601 -604 -5 -7 -39 -43 -75 -82 -243 -261 -317 -344 -559 -629
-524 -615 -1086 -1387 -1491 -2045 -46 -74 -93 -151 -105 -170 -74 -117 -300
-508 -389 -672 -20 -38 -51 -96 -70 -130 -273 -506 -530 -1050 -768 -1626
-247 -598 -491 -1311 -665 -1942 -123 -446 -277 -1116 -338 -1465 -8 -44 -23
-134 -35 -200 -12 -66 -30 -178 -41 -250 -10 -71 -24 -155 -29 -185 -20 -112
-80 -613 -104 -870 -62 -655 -80 -1111 -73 -1850 6 -554 12 -712 42 -1115 54
-705 163 -1502 286 -2095 148 -711 258 -1142 457 -1790 64 -208 231 -689 317
-915 26 -66 61 -160 80 -210 18 -49 54 -139 80 -200 26 -60 52 -126 60 -145
98 -259 440 -988 653 -1390 98 -186 190 -356 221 -408 17 -29 31 -55 31 -57 0
-8 323 -554 385 -650 408 -636 647 -979 1055 -1510 40 -53 263 -329 274 -341
6 -6 27 -30 46 -54 54 -68 252 -302 270 -320 3 -3 54 -61 114 -130 61 -69 117
-132 125 -141 9 -8 63 -67 121 -130 201 -218 474 -496 711 -724 238 -229 260
-249 534 -496 37 -34 182 -159 254 -219 30 -25 59 -50 65 -55 6 -6 38 -33 71
-60 33 -28 62 -52 65 -55 9 -9 303 -244 343 -273 21 -16 45 -36 55 -46 49 -50
726 -542 942 -684 41 -28 99 -66 128 -86 75 -50 297 -194 357 -231 28 -17 79
-49 115 -72 208 -130 682 -405 905 -523 61 -32 126 -67 145 -78 47 -26 668
-337 674 -337 2 0 57 -25 122 -56 66 -30 128 -59 139 -64 11 -5 55 -25 98 -44
44 -20 81 -36 83 -36 2 0 37 -15 77 -34 40 -18 84 -37 97 -41 14 -4 48 -18 75
-31 60 -27 420 -171 520 -208 39 -15 79 -31 90 -36 114 -55 998 -347 1290
-427 50 -13 126 -35 170 -48 75 -23 587 -153 740 -188 260 -60 489 -107 795
-162 74 -14 160 -29 190 -35 326 -62 1092 -156 1590 -195 711 -55 1745 -59
2485 -10 597 40 1341 129 1830 219 338 63 648 124 755 150 30 8 91 21 135 31
608 133 1501 400 2140 640 344 129 574 221 850 340 112 48 306 135 394 176 57
27 105 49 107 49 10 0 661 328 799 403 469 252 924 523 1351 804 69 46 129 83
134 83 4 0 10 4 12 8 2 4 62 48 133 97 201 137 253 173 355 248 171 126 364
270 416 312 28 22 66 51 84 65 56 42 293 231 331 264 20 17 45 38 55 46 29 22
194 161 229 191 17 15 68 59 115 99 144 124 453 405 619 565 218 209 653 652
766 779 6 6 53 58 105 116 52 58 124 139 160 179 36 41 86 99 112 128 26 29
112 130 191 225 493 595 904 1154 1309 1783 94 146 291 467 305 495 3 8 23 42
44 75 61 99 174 300 256 455 25 47 49 90 53 95 24 34 339 655 408 805 16 36
58 126 92 200 109 236 195 434 276 635 25 61 49 119 54 130 5 11 30 74 55 140
26 66 58 149 72 185 67 173 227 631 299 860 479 1514 736 2981 804 4570 21
486 12 1273 -20 1790 -36 571 -122 1333 -200 1760 -6 30 -17 98 -26 150 -14
90 -27 155 -75 400 -56 280 -159 733 -214 935 -153 570 -207 750 -340 1149
-126 379 -351 979 -445 1191 -10 22 -30 69 -45 105 -58 140 -211 480 -287 640
-209 437 -579 1135 -714 1348 -19 29 -34 54 -34 56 0 4 -80 138 -188 314 -198
321 -565 863 -752 1112 -11 14 -68 90 -127 169 -59 79 -117 156 -128 170 -49
66 -369 465 -429 536 -37 44 -84 100 -104 124 -122 148 -509 576 -687 759
-131 136 -481 486 -566 566 -222 210 -388 362 -549 502 -25 21 -47 41 -50 45
-3 3 -63 54 -135 114 -71 60 -146 123 -166 139 -89 77 -146 124 -192 158 -28
21 -64 50 -81 65 -17 16 -67 55 -111 89 -44 33 -114 87 -155 118 -77 60 -222
168 -389 291 -162 120 -524 367 -741 507 -47 30 -119 77 -160 103 -41 27 -84
54 -95 61 -11 6 -118 70 -237 143 -120 72 -253 151 -295 175 -43 24 -107 60
-143 81 -36 20 -92 52 -125 70 -56 30 -91 49 -285 153 -100 53 -557 282 -645
322 -38 18 -108 50 -155 72 -46 22 -107 50 -135 63 -73 33 -192 85 -530 230
-447 191 -1191 451 -1830 639 -188 55 -643 173 -815 212 -63 14 -144 32 -180
40 -233 53 -391 84 -745 150 -555 103 -1342 197 -1965 234 -512 30 -1373 39
-1825 19z m1140 -1429 c423 -11 644 -23 1003 -55 1000 -90 1828 -239 2862
-515 567 -152 1396 -444 2000 -703 374 -160 952 -437 1190 -569 25 -14 77 -42
115 -63 100 -53 171 -92 245 -135 36 -21 119 -68 185 -106 202 -115 497 -298
775 -482 791 -522 1474 -1065 2205 -1751 156 -147 612 -610 738 -751 67 -74
128 -142 137 -150 26 -26 161 -179 286 -325 257 -301 567 -696 819 -1045 217
-300 544 -794 685 -1035 23 -38 55 -92 72 -120 254 -413 644 -1165 862 -1662
140 -321 191 -441 281 -673 500 -1274 835 -2627 989 -3990 117 -1032 134
-2092 51 -3090 -29 -350 -36 -419 -66 -655 -117 -947 -280 -1720 -573 -2718
-146 -496 -438 -1276 -682 -1818 -306 -683 -708 -1440 -1039 -1954 -17 -27
-76 -120 -131 -205 -97 -152 -318 -480 -356 -530 -11 -14 -63 -86 -116 -160
-666 -932 -1540 -1894 -2417 -2659 -71 -63 -143 -126 -160 -140 -91 -80 -353
-295 -565 -462 -578 -459 -1403 -1004 -2075 -1372 -49 -27 -94 -52 -100 -56
-15 -12 -206 -112 -450 -235 -877 -446 -1819 -814 -2785 -1091 -223 -64 -611
-165 -775 -201 -60 -13 -150 -33 -200 -44 -1104 -249 -2513 -390 -3655 -365
-1300 28 -2458 181 -3668 486 -485 122 -1095 310 -1517 466 -44 17 -129 48
-190 71 -469 171 -1285 536 -1710 764 -459 245 -789 432 -887 499 -15 11 -29
19 -32 19 -20 0 -649 413 -916 600 -358 252 -922 690 -1185 921 -16 14 -88 77
-160 140 -494 432 -1017 954 -1456 1454 -185 211 -432 506 -539 646 -14 18
-30 37 -36 43 -21 22 -348 461 -462 620 -152 213 -302 436 -477 711 -57 89
-275 447 -275 451 0 1 -17 31 -39 65 -82 136 -263 468 -421 774 -186 360 -464
976 -615 1365 -31 80 -65 166 -75 191 -59 141 -271 762 -340 994 -10 33 -32
105 -49 161 -46 153 -133 477 -185 689 -26 105 -51 207 -57 228 -16 61 -107
507 -144 707 -258 1410 -324 2821 -199 4285 38 454 101 917 199 1480 105 605
313 1420 528 2075 549 1670 1348 3197 2420 4625 83 110 153 202 157 205 3 3
28 34 55 70 27 36 72 92 100 126 27 33 66 80 85 104 38 49 311 372 320 380 3
3 39 43 80 90 1226 1389 2736 2588 4375 3475 1008 545 2061 976 3150 1289 254
73 288 82 516 140 1165 293 2412 460 3589 479 80 2 192 3 250 5 58 1 263 -3
455 -8z"/>
<path d="M15986 23571 c-8 -12 -247 -628 -477 -1231 -50 -129 -97 -248 -104
-265 -8 -16 -25 -59 -38 -95 -38 -104 -109 -287 -207 -540 -50 -129 -132 -341
-182 -470 -50 -129 -110 -284 -133 -345 -93 -239 -110 -281 -234 -605 -16 -41
-73 -187 -126 -325 -152 -393 -157 -405 -265 -685 -116 -299 -138 -356 -243
-630 -87 -225 -155 -401 -227 -585 -28 -71 -93 -240 -145 -375 -51 -135 -119
-310 -150 -390 -32 -80 -80 -203 -107 -275 -98 -256 -220 -572 -262 -680 -24
-60 -58 -148 -76 -195 -18 -47 -52 -134 -76 -195 -109 -280 -224 -578 -299
-775 -46 -118 -99 -257 -119 -307 -20 -51 -52 -135 -72 -185 -32 -84 -56 -145
-153 -398 -31 -80 -201 -517 -256 -660 -18 -47 -63 -164 -101 -260 -37 -96
-84 -220 -106 -275 -21 -55 -52 -134 -68 -175 -30 -79 -175 -457 -240 -625
-22 -55 -62 -158 -90 -230 -84 -215 -220 -572 -220 -579 0 -3 382 -6 849 -6
800 0 849 1 854 18 3 9 33 91 66 182 34 91 82 219 105 285 72 198 162 445 194
530 17 44 53 141 80 215 27 74 81 221 120 325 39 105 81 222 95 260 14 39 46
124 70 190 25 66 97 262 160 435 209 570 247 674 282 765 19 50 51 135 70 190
20 55 61 165 90 245 58 155 151 407 235 635 28 77 103 280 166 450 125 336
161 433 253 685 33 91 119 325 191 520 73 195 143 384 155 420 120 329 301
825 345 940 26 68 142 383 240 650 21 58 54 148 74 200 19 52 76 208 126 345
50 138 122 333 160 435 38 102 119 322 181 490 159 436 275 751 288 783 7 19
18 27 35 27 14 0 28 -4 31 -10 7 -11 121 -323 202 -550 53 -151 153 -425 235
-645 22 -60 47 -128 54 -150 7 -22 30 -89 52 -150 22 -60 77 -211 122 -335
130 -357 371 -1025 507 -1400 68 -190 133 -367 143 -395 10 -27 32 -88 49
-135 16 -47 64 -179 106 -295 43 -115 115 -313 160 -440 46 -126 111 -306 145
-400 34 -93 86 -237 115 -320 29 -82 58 -161 63 -175 9 -21 135 -370 225 -625
14 -38 71 -198 127 -355 56 -157 124 -346 150 -420 64 -179 319 -883 582
-1605 44 -121 108 -299 143 -395 35 -96 98 -269 140 -385 42 -115 94 -259 115
-320 21 -60 46 -128 54 -150 8 -22 57 -157 110 -300 l95 -260 850 -3 850 -2
-9 27 c-4 16 -54 147 -110 293 -56 146 -133 348 -172 450 -38 102 -87 230
-108 285 -207 543 -315 828 -330 870 -10 28 -44 115 -75 195 -31 80 -101 262
-155 405 -54 143 -140 368 -190 500 -88 232 -192 505 -290 765 -26 69 -64 168
-84 220 -21 52 -53 136 -71 185 -19 50 -54 142 -78 205 -88 228 -210 550 -299
785 -49 132 -105 278 -123 325 -18 47 -64 168 -103 270 -38 102 -94 246 -122
320 -29 74 -69 180 -90 235 -21 55 -75 197 -120 315 -45 118 -115 305 -157
415 -42 110 -84 223 -95 250 -11 28 -23 61 -28 75 -5 14 -34 90 -65 170 -62
162 -170 444 -250 655 -29 77 -76 201 -105 275 -28 74 -91 241 -140 370 -49
129 -114 300 -145 380 -31 80 -71 186 -90 235 -35 93 -155 410 -245 645 -28
74 -103 272 -167 440 -165 435 -170 450 -272 715 -50 132 -133 348 -183 480
-50 132 -123 323 -162 425 l-71 185 -712 2 c-392 2 -714 -1 -717 -6z"/>
<path d="M5443 23563 l-23 -4 0 -6175 0 -6174 830 0 831 0 -4 2608 c-4 2431
-8 2981 -23 3107 -3 28 -7 145 -9 260 -2 116 -7 260 -10 320 -7 142 -13 311
-20 560 -5 211 -13 444 -20 635 -3 63 -8 250 -11 415 -3 165 -8 304 -11 308
-3 5 -7 124 -9 265 -2 142 -8 334 -13 427 -5 94 -9 179 -8 190 0 11 -4 151 -9
310 -5 160 -9 337 -9 394 l0 105 27 7 c15 4 27 4 26 1 -2 -22 4 -31 20 -26 12
4 13 3 4 -3 -12 -9 9 -76 63 -198 7 -16 44 -107 81 -202 38 -94 71 -170 75
-167 4 2 7 -6 7 -19 -1 -17 152 -409 192 -492 5 -11 27 -65 49 -120 105 -270
134 -336 143 -323 6 9 7 6 3 -8 -5 -18 112 -329 180 -479 7 -16 43 -106 80
-200 37 -93 73 -185 81 -202 8 -18 25 -61 38 -95 14 -35 37 -92 53 -128 17
-36 33 -78 37 -95 4 -16 18 -52 31 -80 13 -27 33 -75 45 -105 11 -30 25 -64
30 -75 25 -56 47 -115 60 -155 8 -25 17 -47 21 -50 3 -3 20 -43 38 -90 18 -47
38 -98 45 -115 7 -16 24 -57 37 -90 13 -33 29 -67 36 -76 7 -8 13 -20 13 -26
0 -6 14 -50 32 -98 22 -61 34 -82 40 -73 7 9 8 7 4 -6 -6 -16 57 -191 74 -206
3 -3 16 -36 29 -75 24 -71 87 -227 121 -300 10 -22 33 -80 51 -130 52 -142 95
-236 104 -227 4 4 5 1 1 -5 -6 -12 135 -384 169 -445 8 -14 15 -31 15 -38 0
-7 7 -28 16 -47 13 -26 19 -31 26 -21 6 9 7 5 3 -10 -4 -15 2 -45 16 -79 19
-47 24 -53 31 -37 6 15 7 13 3 -7 -4 -24 14 -84 55 -174 9 -22 30 -71 44 -110
15 -38 34 -84 42 -102 8 -17 14 -36 14 -43 0 -6 5 -8 12 -4 6 4 8 3 4 -4 -3
-6 0 -26 8 -44 16 -36 190 -470 266 -663 117 -294 144 -355 152 -343 6 9 7 6
3 -8 -4 -14 22 -89 75 -218 44 -107 80 -198 80 -201 0 -4 9 -25 19 -48 11 -23
49 -118 86 -212 37 -93 72 -183 80 -200 7 -16 23 -55 35 -85 21 -53 27 -66 65
-155 9 -21 23 -60 32 -85 8 -25 25 -67 38 -95 37 -81 58 -129 60 -140 0 -5 5
-19 9 -30 5 -11 16 -38 25 -60 9 -22 23 -60 31 -85 8 -25 17 -47 20 -50 4 -3
33 -71 65 -153 58 -144 60 -146 73 -120 8 14 18 38 22 52 5 14 36 98 70 186
34 88 75 194 91 235 65 172 120 315 134 344 7 17 20 51 29 76 13 41 26 75 51
135 5 11 10 25 10 30 1 6 11 30 22 55 11 25 24 56 28 70 4 14 18 49 31 78 13
29 24 56 24 60 0 4 25 70 56 147 31 77 73 186 94 243 l39 102 -25 68 c-13 37
-29 76 -34 87 -5 11 -21 52 -36 90 -14 39 -32 84 -39 100 -7 17 -28 68 -45
115 -68 178 -83 216 -104 265 -24 52 -99 248 -144 375 -15 41 -30 77 -33 80
-3 3 -18 39 -33 80 -16 41 -32 83 -37 93 -5 10 -25 61 -45 115 -19 53 -41 111
-48 127 -8 17 -30 71 -49 120 -75 195 -80 206 -89 193 -6 -9 -7 -6 -3 8 6 22
-7 57 -161 447 -41 103 -74 190 -74 193 0 3 -9 26 -21 52 -32 73 -32 74 -110
277 -24 61 -45 112 -49 115 -3 3 -14 32 -24 64 -13 44 -20 55 -28 45 -7 -10
-8 -9 -4 6 3 12 -9 59 -30 110 -19 50 -42 110 -50 135 -26 74 -57 140 -65 134
-4 -2 -11 1 -15 7 -4 8 -3 9 4 5 7 -4 12 -4 12 1 -1 27 -96 258 -102 247 -3
-5 -3 -2 -1 6 2 8 -35 114 -83 235 -97 248 -95 242 -123 309 -12 27 -21 53
-21 57 0 5 -9 28 -19 52 -11 23 -30 71 -44 107 -69 178 -119 307 -127 325 -5
11 -39 99 -76 195 -37 96 -74 182 -81 191 -8 9 -13 20 -12 25 1 5 1 16 0 24
-1 13 -3 13 -12 0 -9 -12 -10 -12 -5 4 6 17 -9 67 -49 161 -45 107 -55 134
-66 170 -6 22 -15 45 -19 50 -4 6 -36 83 -70 173 -43 108 -67 158 -73 150 -5
-8 -6 -5 -2 9 5 18 -112 338 -179 488 -7 17 -26 64 -41 105 -15 41 -31 80 -35
85 -4 6 -10 23 -14 40 -4 16 -16 47 -25 70 -10 22 -40 96 -67 165 -55 142 -70
175 -76 163 -3 -4 -3 -2 -1 6 2 8 -2 30 -8 50 -11 32 -13 33 -21 16 -7 -16 -7
-15 -3 6 3 16 -9 60 -31 115 -19 49 -42 109 -50 134 -9 25 -24 63 -34 85 -18
38 -65 159 -77 197 -3 10 -10 15 -16 11 -5 -3 -7 -1 -3 5 3 6 -2 32 -12 58
-13 31 -21 43 -25 33 -4 -8 -4 -4 -1 8 3 12 -4 41 -14 65 -10 24 -45 110 -77
191 -32 82 -61 144 -65 138 -3 -6 -6 4 -6 22 0 19 -7 49 -16 68 -8 19 -28 66
-43 104 -42 110 -49 124 -57 119 -4 -3 -6 1 -3 8 3 7 -18 72 -46 143 -28 72
-53 138 -56 147 -3 10 -8 16 -12 14 -3 -2 -7 6 -7 17 -2 34 -86 247 -95 242
-4 -3 -7 3 -6 12 1 22 -52 162 -70 184 -8 9 -13 20 -11 25 3 10 -41 123 -55
142 -7 9 -227 12 -1046 11 -570 -1 -1046 -4 -1058 -6z m2274 -475 c-3 -8 -6
-5 -6 6 -1 11 2 17 5 13 3 -3 4 -12 1 -19z m91 -223 c-3 -3 -9 2 -12 12 -6 14
-5 15 5 6 7 -7 10 -15 7 -18z m23 -51 c5 -15 8 -29 5 -31 -2 -2 -8 10 -14 26
-13 38 -5 41 9 5z m-16 -24 c3 -5 1 -10 -4 -10 -6 0 -11 5 -11 10 0 6 2 10 4
10 3 0 8 -4 11 -10z m309 -726 c3 -8 2 -12 -4 -9 -6 3 -10 10 -10 16 0 14 7
11 14 -7z m25 -79 c0 -5 -4 -3 -9 5 -5 8 -9 22 -9 30 0 16 17 -16 18 -35z
m241 -600 c0 -8 -2 -15 -4 -15 -2 0 -6 7 -10 15 -3 8 -1 15 4 15 6 0 10 -7 10
-15z m-1443 -251 c-3 -3 -12 -4 -19 -1 -8 3 -5 6 6 6 11 1 17 -2 13 -5z m106
-69 c-3 -9 -8 -14 -10 -11 -3 3 -2 9 2 15 9 16 15 13 8 -4z m-13 -55 c6 -11 8
-20 6 -20 -3 0 -10 9 -16 20 -6 11 -8 20 -6 20 3 0 10 -9 16 -20z m1507 -42
c-3 -8 -6 -5 -6 6 -1 11 2 17 5 13 3 -3 4 -12 1 -19z m-1447 -74 c0 -8 -4 -12
-10 -9 -5 3 -10 10 -10 16 0 5 5 9 10 9 6 0 10 -7 10 -16z m10 -34 c0 -5 -4
-10 -10 -10 -5 0 -10 5 -10 10 0 6 5 10 10 10 6 0 10 -4 10 -10z m-193 -117
c-3 -10 -5 -4 -5 12 0 17 2 24 5 18 2 -7 2 -21 0 -30z m0 -185 c-2 -13 -4 -3
-4 22 0 25 2 35 4 23 2 -13 2 -33 0 -45z m1760 20 c-3 -8 -6 -5 -6 6 -1 11 2
17 5 13 3 -3 4 -12 1 -19z m30 -10 c-3 -8 -6 -5 -6 6 -1 11 2 17 5 13 3 -3 4
-12 1 -19z m-1427 -73 c0 -8 -2 -15 -4 -15 -2 0 -6 7 -10 15 -3 8 -1 15 4 15
6 0 10 -7 10 -15z m1474 -31 c3 -8 2 -12 -4 -9 -6 3 -10 10 -10 16 0 14 7 11
14 -7z m-1461 -9 c-3 -9 -8 -14 -10 -11 -3 3 -2 9 2 15 9 16 15 13 8 -4z
m1493 -84 c1 -6 0 -7 -3 -1 -2 5 -9 8 -13 5 -5 -3 -11 -1 -14 4 -4 5 2 8 11 7
9 -2 18 -8 19 -15z m-1854 -193 c2 -25 0 -44 -4 -41 -5 2 -7 30 -7 61 1 62 6
53 11 -20z m-25 20 c-3 -8 -6 -5 -6 6 -1 11 2 17 5 13 3 -3 4 -12 1 -19z m550
-110 c-3 -8 -6 -5 -6 6 -1 11 2 17 5 13 3 -3 4 -12 1 -19z m1478 -98 c3 -5 1
-10 -4 -10 -6 0 -11 5 -11 10 0 6 2 10 4 10 3 0 8 -4 11 -10z m-1477 -25 c-3
-3 -9 2 -12 12 -6 14 -5 15 5 6 7 -7 10 -15 7 -18z m42 -80 c0 -8 -2 -15 -4
-15 -2 0 -6 7 -10 15 -3 8 -1 15 4 15 6 0 10 -7 10 -15z m-553 -137 c-3 -7 -5
-2 -5 12 0 14 2 19 5 13 2 -7 2 -19 0 -25z m650 -90 c-14 -8 -27 -1 -27 15 0
7 4 6 10 -3 8 -12 10 -10 11 10 0 23 1 23 8 5 5 -12 4 -23 -2 -27z m-650 -140
c-2 -13 -4 -3 -4 22 0 25 2 35 4 23 2 -13 2 -33 0 -45z m752 -138 c0 -10 -3
-8 -9 5 -12 27 -12 43 0 25 5 -8 9 -22 9 -30z m1566 -270 c3 -5 1 -10 -4 -10
-6 0 -11 5 -11 10 0 6 2 10 4 10 3 0 8 -4 11 -10z m-1417 -105 c-3 -3 -9 2
-12 12 -6 14 -5 15 5 6 7 -7 10 -15 7 -18z m64 -147 c-6 -6 -7 0 -4 19 5 21 7
23 10 9 2 -10 0 -22 -6 -28z m1517 -117 c6 -19 9 -36 7 -38 -2 -2 -11 17 -20
44 -9 26 -12 43 -7 38 4 -6 13 -25 20 -44z m-31 -6 c-3 -3 -9 2 -12 12 -6 14
-5 15 5 6 7 -7 10 -15 7 -18z m-1321 -287 c-3 -8 -6 -5 -6 6 -1 11 2 17 5 13
3 -3 4 -12 1 -19z m1501 -83 c-3 -3 -9 2 -12 12 -6 14 -5 15 5 6 7 -7 10 -15
7 -18z m90 -240 c-3 -3 -9 2 -12 12 -6 14 -5 15 5 6 7 -7 10 -15 7 -18z
m-2671 -47 c-2 -13 -4 -3 -4 22 0 25 2 35 4 23 2 -13 2 -33 0 -45z m2722 -93
c0 -5 -4 -3 -9 5 -5 8 -9 22 -9 30 0 16 17 -16 18 -35z m-2712 -237 c-3 -8 -6
-5 -6 6 -1 11 2 17 5 13 3 -3 4 -12 1 -19z m2813 -3 c11 -13 10 -14 -4 -9 -9
3 -16 10 -16 15 0 13 6 11 20 -6z m-2833 -27 c-3 -8 -6 -5 -6 6 -1 11 2 17 5
13 3 -3 4 -12 1 -19z m1420 -20 c-3 -8 -6 -5 -6 6 -1 11 2 17 5 13 3 -3 4 -12
1 -19z m-23 -3 c3 -8 1 -15 -4 -15 -6 0 -10 7 -10 15 0 8 2 15 4 15 2 0 6 -7
10 -15z m116 -310 c0 -5 -5 -3 -10 5 -5 8 -10 20 -10 25 0 6 5 3 10 -5 5 -8
10 -19 10 -25z m-1493 -67 c-3 -8 -6 -5 -6 6 -1 11 2 17 5 13 3 -3 4 -12 1
-19z m2950 -30 c-3 -8 -6 -5 -6 6 -1 11 2 17 5 13 3 -3 4 -12 1 -19z m-2930
-20 c-3 -8 -6 -5 -6 6 -1 11 2 17 5 13 3 -3 4 -12 1 -19z m3041 -163 c-3 -3
-9 2 -12 12 -6 14 -5 15 5 6 7 -7 10 -15 7 -18z m-1438 -40 c0 -5 -5 -3 -10 5
-5 8 -10 20 -10 25 0 6 5 3 10 -5 5 -8 10 -19 10 -25z m17 -47 c-3 -8 -6 -5
-6 6 -1 11 2 17 5 13 3 -3 4 -12 1 -19z m1483 -67 c6 -13 7 -21 2 -17 -6 3
-12 -2 -15 -11 -2 -10 -4 -1 -3 19 0 21 1 36 2 35 1 -1 7 -13 14 -26z m-1412
-106 c-3 -3 -9 2 -12 12 -6 14 -5 15 5 6 7 -7 10 -15 7 -18z m80 -190 c-3 -3
-9 2 -12 12 -6 14 -5 15 5 6 7 -7 10 -15 7 -18z m1442 5 c0 -5 -2 -10 -4 -10
-3 0 -8 5 -11 10 -3 6 -1 10 4 10 6 0 11 -4 11 -10z m-1360 -130 c0 -5 -2 -10
-4 -10 -3 0 -8 5 -11 10 -3 6 -1 10 4 10 6 0 11 -4 11 -10z m-23 -32 c-3 -8
-6 -5 -6 6 -1 11 2 17 5 13 3 -3 4 -12 1 -19z m30 -10 c-3 -8 -6 -5 -6 6 -1
11 2 17 5 13 3 -3 4 -12 1 -19z m1420 0 c-3 -8 -6 -5 -6 6 -1 11 2 17 5 13 3
-3 4 -12 1 -19z m63 -203 c0 -5 -5 -3 -10 5 -5 8 -10 20 -10 25 0 6 5 3 10 -5
5 -8 10 -19 10 -25z m-1351 -177 c6 -18 7 -28 2 -23 -10 12 -25 55 -18 55 3 0
10 -15 16 -32z m28 -20 c-3 -8 -6 -5 -6 6 -1 11 2 17 5 13 3 -3 4 -12 1 -19z
m1470 -150 c-3 -8 -6 -5 -6 6 -1 11 2 17 5 13 3 -3 4 -12 1 -19z m-1407 -32
c0 -3 -4 -8 -10 -11 -5 -3 -10 -1 -10 4 0 6 5 11 10 11 6 0 10 -2 10 -4z m7
-48 c-3 -8 -6 -5 -6 6 -1 11 2 17 5 13 3 -3 4 -12 1 -19z m1493 -133 c0 -5 -5
-3 -10 5 -5 8 -10 20 -10 25 0 6 5 3 10 -5 5 -8 10 -19 10 -25z m-1393 -7 c-3
-8 -6 -5 -6 6 -1 11 2 17 5 13 3 -3 4 -12 1 -19z m53 -228 c0 -5 -2 -10 -4
-10 -3 0 -8 5 -11 10 -3 6 -1 10 4 10 6 0 11 -4 11 -10z m170 -367 c0 -32 -5
-28 -14 10 -4 19 -3 26 4 22 5 -3 10 -18 10 -32z m1477 -195 c-3 -8 -6 -5 -6
6 -1 11 2 17 5 13 3 -3 4 -12 1 -19z m-1317 -174 c0 -8 -5 -12 -10 -9 -6 4 -8
11 -5 16 9 14 15 11 15 -7z m17 -26 c-3 -8 -6 -5 -6 6 -1 11 2 17 5 13 3 -3 4
-12 1 -19z m-24 -33 c-3 -9 -8 -14 -10 -11 -3 3 -2 9 2 15 9 16 15 13 8 -4z
m1438 -41 c5 -15 8 -29 5 -31 -2 -2 -8 10 -14 26 -13 38 -5 41 9 5z m84 -234
c3 -5 1 -10 -4 -10 -6 0 -11 5 -11 10 0 6 2 10 4 10 3 0 8 -4 11 -10z m-1371
-116 c3 -8 2 -12 -4 -9 -6 3 -10 10 -10 16 0 14 7 11 14 -7z m23 -56 c-3 -8
-6 -5 -6 6 -1 11 2 17 5 13 3 -3 4 -12 1 -19z m83 -203 c0 -5 -5 -3 -10 5 -5
8 -10 20 -10 25 0 6 5 3 10 -5 5 -8 10 -19 10 -25z m1326 -147 c4 -7 3 -8 -4
-4 -7 4 -12 2 -12 -5 0 -7 -3 -10 -6 -6 -6 5 3 27 11 27 2 0 7 -5 11 -12z
m-67 -197 c-6 -18 -13 -30 -15 -28 -2 2 1 18 7 36 6 18 13 30 15 28 2 -2 -1
-18 -7 -36z m-117 -303 c-8 -8 -9 -4 -5 13 4 13 8 18 11 10 2 -7 -1 -18 -6
-23z m-42 -108 c0 -5 -4 -10 -10 -10 -5 0 -10 5 -10 10 0 6 5 10 10 10 6 0 10
-4 10 -10z m-89 -217 c-12 -20 -14 -14 -5 12 4 9 9 14 11 11 3 -2 0 -13 -6
-23z m-18 -58 c-3 -9 -8 -14 -10 -11 -3 3 -2 9 2 15 9 16 15 13 8 -4z m-70
-145 c3 -11 1 -18 -4 -14 -5 3 -9 12 -9 20 0 20 7 17 13 -6z m-96 -212 c-3 -8
-6 -5 -6 6 -1 11 2 17 5 13 3 -3 4 -12 1 -19z m-80 -280 c-3 -8 -6 -5 -6 6 -1
11 2 17 5 13 3 -3 4 -12 1 -19z"/>
<path d="M20733 23564 c-10 -5 -13 -743 -13 -3646 l0 -3640 51 -135 c28 -76
60 -145 72 -155 12 -11 16 -16 8 -12 -20 10 -20 9 129 -381 136 -357 171 -450
206 -545 19 -52 44 -114 54 -137 11 -24 20 -46 20 -50 0 -7 53 -148 154 -411
18 -45 35 -80 38 -76 4 3 4 -3 2 -14 -3 -10 0 -25 8 -33 7 -8 18 -32 24 -54 6
-22 23 -69 36 -105 14 -36 42 -110 63 -165 20 -55 43 -113 50 -130 7 -16 21
-53 31 -82 10 -28 21 -50 24 -48 3 2 6 -7 6 -18 2 -25 69 -204 84 -222 5 -7 7
-15 3 -18 -3 -4 -1 -12 4 -19 6 -7 25 -56 43 -108 19 -52 39 -106 47 -120 7
-14 13 -29 13 -35 0 -23 48 -124 55 -117 5 4 5 1 1 -6 -10 -16 13 -74 25 -66
5 3 7 -1 4 -8 -3 -7 11 -56 31 -108 19 -52 50 -136 68 -186 18 -50 35 -95 38
-100 3 -5 38 -94 78 -199 117 -308 137 -355 144 -348 4 4 4 0 1 -9 -4 -9 2
-36 13 -60 11 -23 25 -61 33 -83 12 -38 13 -39 21 -15 6 20 7 19 3 -8 -3 -19
1 -43 7 -55 7 -12 13 -26 14 -32 3 -15 73 -207 84 -230 7 -17 52 -135 119
-315 l17 -45 1459 0 c1503 0 1599 2 1945 36 199 20 547 81 597 106 17 8 36 12
41 9 6 -3 21 -2 34 3 19 8 112 31 182 46 25 6 265 84 291 95 11 5 69 28 128
51 77 30 105 44 95 51 -9 6 -6 7 9 3 29 -8 304 124 298 142 -2 7 2 10 10 7 22
-9 189 97 173 109 -9 6 -7 7 6 2 14 -4 45 11 105 52 48 32 92 63 99 70 7 7 21
17 30 23 15 8 15 11 2 20 -12 8 -9 9 10 5 19 -4 34 3 62 27 21 18 57 50 82 70
24 21 43 45 42 54 0 9 6 19 14 21 13 4 13 3 0 -6 -8 -5 -11 -13 -7 -18 4 -4
60 45 124 109 96 96 114 119 105 131 -10 12 -9 16 2 20 11 4 13 1 9 -11 -13
-35 61 46 154 170 57 77 92 132 87 139 -4 8 -3 9 4 5 7 -4 20 10 34 35 47 85
55 97 87 148 19 29 31 58 27 67 -3 8 -2 13 3 10 8 -5 76 129 76 149 0 6 2 12
6 15 18 17 54 118 50 145 -1 14 1 16 7 7 18 -26 157 477 178 643 4 33 8 67 9
75 1 8 5 35 9 60 30 189 43 743 22 930 -6 48 -29 221 -43 319 -3 19 -11 41
-19 48 -17 17 -18 27 -3 17 7 -4 9 0 6 12 -4 11 -20 75 -37 144 -17 69 -34
134 -39 145 -5 11 -21 59 -37 107 -15 49 -32 84 -38 81 -5 -4 -7 1 -3 10 4 10
-8 49 -28 92 -19 41 -35 78 -35 81 0 9 -94 198 -101 204 -4 3 -16 24 -28 48
-12 23 -26 40 -31 37 -5 -3 -7 0 -4 8 5 13 -155 262 -214 333 -15 18 -43 52
-62 75 -19 24 -71 80 -114 126 -59 62 -82 81 -88 71 -6 -9 -7 -6 -3 8 4 15 -1
26 -17 37 -13 9 -48 39 -78 67 -30 29 -100 86 -155 127 -55 41 -108 81 -117
89 -43 34 -100 64 -110 58 -6 -4 -8 -3 -5 3 3 5 -11 20 -32 31 -43 25 -56 27
-45 10 4 -7 3 -8 -5 -4 -6 4 -8 12 -5 18 4 6 -2 8 -17 3 -18 -5 -20 -4 -10 4
12 8 9 12 -15 23 -16 7 -32 16 -35 21 -4 5 -18 10 -32 10 -14 1 -23 5 -21 8
16 27 -487 213 -676 250 -30 6 -62 12 -70 14 -8 2 -19 4 -24 4 -15 2 16 31 33
31 9 0 27 6 41 13 14 7 64 28 113 47 50 20 85 40 83 46 -3 7 3 10 12 7 16 -4
78 25 247 115 28 15 52 29 55 33 3 3 24 16 48 29 30 17 39 26 30 33 -9 6 -8 7
5 3 11 -4 42 11 85 41 37 26 69 49 72 53 3 3 21 17 40 30 72 48 200 162 194
171 -3 5 -1 8 5 7 30 -8 340 319 325 343 -4 7 -3 9 4 5 6 -3 21 8 33 26 13 18
26 35 29 38 4 3 32 43 63 89 41 60 56 90 52 105 -5 15 -4 17 3 8 7 -10 20 4
48 55 131 228 226 498 260 742 8 58 17 114 20 125 11 33 6 547 -6 661 -20 201
-31 290 -40 320 -6 17 -12 46 -14 65 -8 63 -38 180 -44 176 -4 -2 -8 16 -9 39
-1 43 -80 293 -124 395 -16 37 -25 48 -31 38 -6 -9 -7 -6 -3 9 4 16 -12 59
-55 145 -33 68 -70 134 -81 148 l-19 25 10 -30 c9 -24 9 -27 -1 -18 -7 7 -12
25 -11 40 0 16 -10 41 -24 58 -17 20 -22 24 -18 10 4 -11 4 -17 0 -13 -4 3 -9
17 -10 31 -3 28 -95 159 -106 152 -4 -3 -7 1 -6 9 2 20 -144 187 -156 180 -7
-4 -8 -2 -4 4 8 14 -60 86 -74 77 -6 -3 -7 0 -4 9 4 11 0 16 -10 16 -9 0 -16
7 -16 16 0 11 -6 14 -22 9 -15 -4 -18 -3 -11 2 17 12 -60 89 -78 78 -7 -5 -10
-4 -6 2 9 14 -80 86 -94 77 -7 -4 -9 -3 -5 4 3 6 -8 21 -26 33 -18 13 -37 29
-41 36 -4 7 -12 13 -18 13 -5 0 -20 9 -32 20 -12 12 -32 23 -44 26 -13 4 -23
10 -23 14 0 13 -149 102 -160 95 -6 -4 -9 -1 -8 5 4 14 -192 121 -210 115 -7
-3 -11 -1 -8 4 3 5 -9 16 -27 24 -118 55 -153 68 -168 64 -13 -3 -16 0 -12 11
5 11 2 14 -10 9 -9 -3 -17 -3 -17 1 0 4 -36 21 -80 37 -44 16 -80 33 -80 37 0
4 -7 8 -16 8 -8 0 -59 14 -112 32 -53 17 -104 31 -112 31 -8 0 -19 3 -25 7
-11 9 -101 35 -193 56 -35 8 -71 18 -80 23 -9 4 -33 11 -52 14 -19 3 -87 16
-150 28 -120 22 -155 28 -205 33 -16 2 -37 6 -45 9 -8 3 -40 8 -70 11 -30 3
-89 9 -130 15 -41 5 -109 12 -150 15 -41 3 -102 9 -135 12 -33 3 -85 8 -115
11 -73 7 -4481 13 -4497 7z m4380 -21 c-18 -2 -48 -2 -65 0 -18 2 -4 4 32 4
36 0 50 -2 33 -4z m202 -21 c-3 -3 -11 0 -18 7 -9 10 -8 11 6 5 10 -3 15 -9
12 -12z m-4578 -14 c-3 -8 -6 -5 -6 6 -1 11 2 17 5 13 3 -3 4 -12 1 -19z
m4356 15 c-7 -2 -19 -2 -25 0 -7 3 -2 5 12 5 14 0 19 -2 13 -5z m465 -10 c-10
-2 -26 -2 -35 0 -10 3 -2 5 17 5 19 0 27 -2 18 -5z m350 -50 c-10 -2 -26 -2
-35 0 -10 3 -2 5 17 5 19 0 27 -2 18 -5z m42 -13 c-8 -5 -19 -10 -25 -10 -5 0
-3 5 5 10 8 5 20 10 25 10 6 0 3 -5 -5 -10z m-57 -7 c-7 -2 -19 -2 -25 0 -7 3
-2 5 12 5 14 0 19 -2 13 -5z m414 -59 c-3 -3 -12 -4 -19 -1 -8 3 -5 6 6 6 11
1 17 -2 13 -5z m363 -104 c-12 -8 -12 -10 -1 -10 8 0 12 -3 8 -6 -9 -9 -28 6
-22 17 4 5 12 9 18 9 7 0 6 -4 -3 -10z m1245 -690 c3 -5 1 -10 -4 -10 -6 0
-11 5 -11 10 0 6 2 10 4 10 3 0 8 -4 11 -10z m240 -240 c3 -5 1 -10 -4 -10 -6
0 -11 5 -11 10 0 6 2 10 4 10 3 0 8 -4 11 -10z m40 -39 c3 -5 2 -12 -3 -15 -5
-3 -9 1 -9 9 0 17 3 19 12 6z m-3136 -37 c8 -7 -74 -2 -99 6 -16 5 -2 6 35 3
33 -3 62 -7 64 -9z m238 0 c-3 -3 -12 -4 -19 -1 -8 3 -5 6 6 6 11 1 17 -2 13
-5z m-99 -25 c90 -7 165 -16 168 -21 3 -4 24 -8 47 -8 40 0 299 -50 362 -70
17 -5 77 -24 135 -41 58 -17 107 -35 110 -38 3 -4 25 -13 49 -20 52 -15 191
-80 274 -129 31 -18 62 -30 69 -26 7 4 8 3 4 -4 -7 -12 30 -36 43 -27 18 10
42 -7 36 -26 -4 -11 -2 -19 5 -19 18 0 164 -124 243 -205 38 -38 66 -62 63
-52 -4 11 -2 16 5 12 6 -4 8 -14 5 -22 -4 -8 9 -33 28 -56 18 -23 39 -52 45
-64 6 -12 17 -21 24 -19 6 1 9 1 4 -2 -4 -2 2 -19 13 -38 12 -18 28 -47 36
-64 9 -16 20 -30 25 -30 5 0 9 -8 9 -17 1 -10 12 -38 26 -63 15 -27 22 -35 19
-20 -5 19 -4 22 4 10 6 -8 8 -22 5 -31 -2 -9 5 -40 16 -68 40 -103 81 -259
104 -396 27 -163 30 -204 30 -425 -1 -202 -10 -330 -31 -435 -9 -44 -16 -87
-16 -95 0 -8 -3 -19 -7 -25 -4 -5 -11 -26 -15 -45 -13 -69 -59 -197 -105 -297
-27 -56 -45 -104 -42 -107 3 -3 1 -6 -4 -6 -15 0 -46 -59 -38 -72 4 -6 3 -8
-3 -5 -6 4 -26 -16 -44 -46 -35 -55 -135 -176 -157 -190 -7 -5 -11 -18 -8 -30
3 -12 3 -16 0 -9 -5 10 -12 8 -30 -9 -13 -12 -21 -26 -18 -31 3 -5 0 -8 -8 -6
-8 2 -26 -8 -40 -22 -14 -14 -53 -47 -87 -73 -34 -27 -59 -53 -55 -58 3 -5 -1
-6 -9 -3 -8 3 -20 -2 -27 -11 -7 -8 -18 -15 -25 -15 -6 0 -20 -9 -30 -20 -10
-11 -24 -20 -30 -20 -7 0 -24 -9 -38 -20 -47 -37 -250 -133 -372 -175 -101
-35 -119 -44 -106 -54 13 -9 11 -9 -7 -1 -16 8 -41 7 -91 -4 -38 -7 -74 -17
-80 -20 -6 -4 -70 -16 -143 -28 -131 -21 -158 -22 -1458 -25 -729 -2 -1409 -4
-1512 -6 -147 -1 -189 1 -193 11 -6 16 -7 3937 -1 3943 2 2 602 3 1333 2 961
-1 1373 -5 1491 -14z m20 14 c-10 -2 -28 -2 -40 0 -13 2 -5 4 17 4 22 1 32 -1
23 -4z m-2861 -2915 c-1 -535 -2 -98 -2 972 0 1070 1 1507 2 973 2 -535 2
-1411 0 -1945z m2961 2905 c-10 -2 -26 -2 -35 0 -10 3 -2 5 17 5 19 0 27 -2
18 -5z m362 -47 c0 -3 -4 -8 -10 -11 -5 -3 -10 -1 -10 4 0 6 5 11 10 11 6 0
10 -2 10 -4z m97 -12 c-3 -3 -12 -4 -19 -1 -8 3 -5 6 6 6 11 1 17 -2 13 -5z
m-20 -20 c-3 -3 -12 -4 -19 -1 -8 3 -5 6 6 6 11 1 17 -2 13 -5z m2711 -269
c-3 -3 -9 2 -12 12 -6 14 -5 15 5 6 7 -7 10 -15 7 -18z m-1848 -135 c0 -5 -2
-10 -4 -10 -3 0 -8 5 -11 10 -3 6 -1 10 4 10 6 0 11 -4 11 -10z m170 -162 c0
-5 -7 -3 -15 6 -8 8 -15 18 -15 22 0 3 7 1 15 -6 8 -7 15 -17 15 -22z m1817
-70 c-3 -8 -6 -5 -6 6 -1 11 2 17 5 13 3 -3 4 -12 1 -19z m60 -160 c-3 -8 -6
-5 -6 6 -1 11 2 17 5 13 3 -3 4 -12 1 -19z m110 -350 c-3 -8 -6 -5 -6 6 -1 11
2 17 5 13 3 -3 4 -12 1 -19z m-1600 -240 c-3 -8 -6 -5 -6 6 -1 11 2 17 5 13 3
-3 4 -12 1 -19z m31 -39 c-3 -20 -5 -19 -9 9 -3 20 -2 29 4 23 5 -5 7 -19 5
-32z m-11 -96 c-3 -10 -5 -2 -5 17 0 19 2 27 5 18 2 -10 2 -26 0 -35z m1640
-25 c-3 -7 -5 -2 -5 12 0 14 2 19 5 13 2 -7 2 -19 0 -25z m0 -510 c-3 -8 -6
-5 -6 6 -1 11 2 17 5 13 3 -3 4 -12 1 -19z m-1630 -210 c-3 -7 -5 -2 -5 12 0
14 2 19 5 13 2 -7 2 -19 0 -25z m1620 -40 c-3 -7 -5 -2 -5 12 0 14 2 19 5 13
2 -7 2 -19 0 -25z m-1640 -75 c-3 -10 -5 -4 -5 12 0 17 2 24 5 18 2 -7 2 -21
0 -30z m20 -85 c-3 -8 -6 -5 -6 6 -1 11 2 17 5 13 3 -3 4 -12 1 -19z m1554
-135 c-12 -20 -14 -14 -5 12 4 9 9 14 11 11 3 -2 0 -13 -6 -23z m-14 -45 c-3
-8 -6 -5 -6 6 -1 11 2 17 5 13 3 -3 4 -12 1 -19z m-27 -72 c0 -3 -4 -8 -10
-11 -5 -3 -10 -1 -10 4 0 6 5 11 10 11 6 0 10 -2 10 -4z m-1700 -170 c0 -3 -4
-8 -10 -11 -5 -3 -10 -1 -10 4 0 6 5 11 10 11 6 0 10 -2 10 -4z m-147 -231
c-3 -9 -8 -14 -10 -11 -3 3 -2 9 2 15 9 16 15 13 8 -4z m1594 -97 c-3 -8 -6
-5 -6 6 -1 11 2 17 5 13 3 -3 4 -12 1 -19z m-1677 -8 c0 -5 -5 -10 -11 -10 -5
0 -7 5 -4 10 3 6 8 10 11 10 2 0 4 -4 4 -10z m1568 -141 c-3 -8 -7 -3 -11 10
-4 17 -3 21 5 13 5 -5 8 -16 6 -23z m-1888 -139 c0 -5 -5 -10 -11 -10 -5 0 -7
5 -4 10 3 6 8 10 11 10 2 0 4 -4 4 -10z m1680 -84 c0 -3 -4 -8 -10 -11 -5 -3
-10 -1 -10 4 0 6 5 11 10 11 6 0 10 -2 10 -4z m-2473 -242 c-3 -3 -12 -4 -19
-1 -8 3 -5 6 6 6 11 1 17 -2 13 -5z m-60 -30 c-3 -3 -12 -4 -19 -1 -8 3 -5 6
6 6 11 1 17 -2 13 -5z m1783 -298 c0 -3 -4 -8 -10 -11 -5 -3 -10 -1 -10 4 0 6
5 11 10 11 6 0 10 -2 10 -4z m-175 -316 c3 -6 -1 -7 -9 -4 -18 7 -21 14 -7 14
6 0 13 -4 16 -10z m40 -20 c-3 -5 -12 -10 -18 -10 -7 0 -6 4 3 10 19 12 23 12
15 0z m402 -166 c-3 -3 -12 -4 -19 -1 -8 3 -5 6 6 6 11 1 17 -2 13 -5z m293
-154 c-8 -5 -22 -9 -30 -9 -10 0 -8 3 5 9 27 12 43 12 25 0z m210 -136 c0 -2
-7 -4 -15 -4 -8 0 -15 4 -15 10 0 5 7 7 15 4 8 -4 15 -8 15 -10z m156 -121
c-6 -6 -36 9 -36 18 0 5 9 4 20 -3 10 -7 18 -14 16 -15z m-4228 -103 c1494 1
1706 -1 1824 -15 170 -21 454 -83 523 -115 11 -5 43 -18 70 -29 95 -36 207
-91 276 -136 76 -49 89 -54 68 -27 -13 15 -12 16 3 3 10 -7 16 -16 13 -20 -4
-8 30 -41 42 -41 8 0 110 -86 156 -132 21 -21 43 -35 49 -32 7 4 8 2 4 -4 -4
-7 4 -22 17 -34 36 -35 169 -215 206 -280 18 -32 37 -58 42 -58 5 0 9 -6 9
-13 0 -18 61 -141 72 -145 4 -2 8 -10 8 -17 0 -7 10 -39 22 -70 15 -40 24 -52
30 -43 6 8 7 5 3 -11 -4 -13 -1 -39 8 -60 21 -50 54 -162 71 -243 8 -37 16
-70 19 -75 3 -4 8 -28 11 -53 3 -25 10 -61 16 -80 5 -19 10 -55 11 -80 0 -26
3 -38 7 -28 10 24 17 -179 17 -482 -1 -258 -6 -324 -41 -525 -8 -44 -16 -89
-18 -100 -2 -11 -5 -20 -6 -20 -1 0 -4 -9 -6 -20 -1 -11 -12 -51 -25 -90 -12
-38 -22 -80 -23 -92 0 -11 -3 -20 -6 -18 -3 2 -18 -29 -34 -68 -38 -93 -92
-201 -128 -255 -16 -23 -26 -47 -22 -54 4 -7 3 -8 -4 -4 -7 4 -12 3 -12 -2 0
-13 -102 -146 -148 -194 -20 -21 -32 -41 -28 -45 4 -4 11 -1 16 7 7 11 9 10 7
-7 -1 -18 -4 -20 -21 -11 -15 8 -22 7 -33 -8 -7 -10 -13 -21 -13 -25 0 -4 -9
-11 -20 -14 -11 -3 -20 -11 -20 -17 0 -5 7 -8 15 -4 22 8 18 -2 -6 -15 -15 -8
-19 -8 -15 0 14 22 -8 10 -48 -26 -23 -21 -57 -49 -76 -63 -19 -14 -45 -35
-57 -47 -13 -12 -23 -20 -23 -19 0 2 -30 -16 -67 -40 -37 -24 -73 -44 -80 -44
-7 0 -13 -3 -13 -8 0 -4 -20 -18 -44 -32 -25 -13 -43 -27 -40 -32 3 -4 -2 -5
-11 -2 -8 4 -25 0 -38 -8 -20 -13 -129 -60 -204 -88 -18 -7 -30 -16 -27 -21 3
-5 -2 -6 -10 -3 -8 3 -44 -3 -78 -15 -151 -49 -374 -95 -518 -107 -36 -2 -78
-9 -95 -14 -16 -5 -39 -10 -50 -11 -82 -5 -3225 -8 -3238 -3 -16 6 -17 154
-17 2240 0 1228 3 2240 6 2249 5 11 10 13 19 5 8 -7 545 -10 1703 -10z m1695
13 c-7 -2 -19 -2 -25 0 -7 3 -2 5 12 5 14 0 19 -2 13 -5z m140 -10 c-7 -2 -21
-2 -30 0 -10 3 -4 5 12 5 17 0 24 -2 18 -5z m125 -20 c-10 -2 -26 -2 -35 0
-10 3 -2 5 17 5 19 0 27 -2 18 -5z m75 -10 c-7 -2 -19 -2 -25 0 -7 3 -2 5 12
5 14 0 19 -2 13 -5z m-3776 -3331 c-1 -609 -2 -110 -2 1108 0 1218 1 1717 2
1107 2 -609 2 -1605 0 -2215z m3950 3292 c-3 -3 -12 -4 -19 -1 -8 3 -5 6 6 6
11 1 17 -2 13 -5z m43 -14 c8 -5 11 -10 5 -10 -5 0 -17 5 -25 10 -8 5 -10 10
-5 10 6 0 17 -5 25 -10z m99 -29 c-6 -2 -18 4 -27 13 -15 15 -15 15 10 4 15
-7 23 -15 17 -17z m211 -61 c0 -5 -2 -10 -4 -10 -3 0 -8 5 -11 10 -3 6 -1 10
4 10 6 0 11 -4 11 -10z m146 -72 l19 -23 -25 20 c-14 11 -27 21 -29 22 -2 2 0
3 6 3 5 0 18 -10 29 -22z m-16 -24 c0 -2 -9 0 -20 6 -11 6 -20 13 -20 16 0 2
9 0 20 -6 11 -6 20 -13 20 -16z m105 -44 c3 -6 -1 -7 -9 -4 -18 7 -21 14 -7
14 6 0 13 -4 16 -10z m1820 -30 c3 -5 1 -10 -4 -10 -6 0 -11 5 -11 10 0 6 2
10 4 10 3 0 8 -4 11 -10z m39 -86 c3 -8 2 -12 -4 -9 -6 3 -10 10 -10 16 0 14
7 11 14 -7z m-1629 -54 c3 -5 1 -10 -4 -10 -6 0 -11 5 -11 10 0 6 2 10 4 10 3
0 8 -4 11 -10z m93 -165 c-3 -3 -9 2 -12 12 -6 14 -5 15 5 6 7 -7 10 -15 7
-18z m1722 -25 c0 -5 -2 -10 -4 -10 -3 0 -8 5 -11 10 -3 6 -1 10 4 10 6 0 11
-4 11 -10z m-8140 -120 c0 -5 -2 -10 -4 -10 -3 0 -8 5 -11 10 -3 6 -1 10 4 10
6 0 11 -4 11 -10z m8204 -16 c3 -8 2 -12 -4 -9 -6 3 -10 10 -10 16 0 14 7 11
14 -7z m-1626 -25 c-3 -8 -7 -3 -11 10 -4 17 -3 21 5 13 5 -5 8 -16 6 -23z
m-6588 -14 c0 -5 -5 -3 -10 5 -5 8 -10 20 -10 25 0 6 5 3 10 -5 5 -8 10 -19
10 -25z m8238 -10 c-3 -3 -9 2 -12 12 -6 14 -5 15 5 6 7 -7 10 -15 7 -18z m39
-137 c-3 -8 -6 -5 -6 6 -1 11 2 17 5 13 3 -3 4 -12 1 -19z m32 -83 c0 -5 -4
-3 -9 5 -5 8 -9 22 -9 30 0 16 17 -16 18 -35z m54 -106 c-4 -4 -9 6 -10 24 -1
30 -1 31 8 8 5 -14 6 -28 2 -32z m-1626 -1 c-3 -8 -6 -5 -6 6 -1 11 2 17 5 13
3 -3 4 -12 1 -19z m-6570 -70 c-3 -8 -6 -5 -6 6 -1 11 2 17 5 13 3 -3 4 -12 1
-19z m8280 -230 c-3 -8 -6 -5 -6 6 -1 11 2 17 5 13 3 -3 4 -12 1 -19z m10 -90
c-3 -8 -6 -5 -6 6 -1 11 2 17 5 13 3 -3 4 -12 1 -19z m-1590 -50 c-3 -8 -6 -5
-6 6 -1 11 2 17 5 13 3 -3 4 -12 1 -19z m10 -60 c-3 -8 -6 -5 -6 6 -1 11 2 17
5 13 3 -3 4 -12 1 -19z m10 -50 c-3 -8 -6 -5 -6 6 -1 11 2 17 5 13 3 -3 4 -12
1 -19z m-6550 -10 c-3 -8 -6 -5 -6 6 -1 11 2 17 5 13 3 -3 4 -12 1 -19z m57
-123 c3 -8 1 -15 -4 -15 -6 0 -10 7 -10 15 0 8 2 15 4 15 2 0 6 -7 10 -15z
m8143 -82 c-3 -10 -5 -2 -5 17 0 19 2 27 5 18 2 -10 2 -26 0 -35z m-7887 -523
c0 -5 -2 -10 -4 -10 -3 0 -8 5 -11 10 -3 6 -1 10 4 10 6 0 11 -4 11 -10z m-23
-32 c-3 -8 -6 -5 -6 6 -1 11 2 17 5 13 3 -3 4 -12 1 -19z m30 -10 c-3 -8 -6
-5 -6 6 -1 11 2 17 5 13 3 -3 4 -12 1 -19z m7890 -15 c-3 -10 -5 -4 -5 12 0
17 2 24 5 18 2 -7 2 -21 0 -30z m-7887 -48 c0 -5 -5 -3 -10 5 -5 8 -10 20 -10
25 0 6 5 3 10 -5 5 -8 10 -19 10 -25z m7867 -32 c-3 -10 -5 -4 -5 12 0 17 2
24 5 18 2 -7 2 -21 0 -30z m10 -125 c-3 -7 -5 -2 -5 12 0 14 2 19 5 13 2 -7 2
-19 0 -25z m-10 -85 c-3 -10 -5 -4 -5 12 0 17 2 24 5 18 2 -7 2 -21 0 -30z
m-1628 -34 c1 8 3 12 6 9 3 -3 2 -13 -1 -22 -5 -14 -9 -15 -15 -4 -6 9 -9 6
-9 -11 0 -13 -3 -22 -6 -19 -3 3 -2 23 2 44 7 36 8 37 15 14 4 -14 7 -19 8
-11z m-12 -81 c-3 -8 -6 -5 -6 6 -1 11 2 17 5 13 3 -3 4 -12 1 -19z m-6070
-60 c-3 -8 -6 -5 -6 6 -1 11 2 17 5 13 3 -3 4 -12 1 -19z m7660 -160 c-3 -7
-5 -2 -5 12 0 14 2 19 5 13 2 -7 2 -19 0 -25z m-20 -100 c-3 -7 -5 -2 -5 12 0
14 2 19 5 13 2 -7 2 -19 0 -25z m-7512 -48 c3 -5 1 -10 -4 -10 -6 0 -11 5 -11
10 0 6 2 10 4 10 3 0 8 -4 11 -10z m5796 -27 c-12 -20 -14 -14 -5 12 4 9 9 14
11 11 3 -2 0 -13 -6 -23z m1649 -143 c0 -5 -5 -10 -11 -10 -5 0 -7 5 -4 10 3
6 8 10 11 10 2 0 4 -4 4 -10z m-1726 -26 c3 -8 2 -12 -4 -9 -6 3 -10 10 -10
16 0 14 7 11 14 -7z m-34 -34 c-6 -11 -13 -20 -16 -20 -2 0 0 9 6 20 6 11 13
20 16 20 2 0 0 -9 -6 -20z m-5590 -20 c0 -5 -5 -10 -11 -10 -5 0 -7 5 -4 10 3
6 8 10 11 10 2 0 4 -4 4 -10z m5460 -234 c0 -3 -4 -8 -10 -11 -5 -3 -10 -1
-10 4 0 6 5 11 10 11 6 0 10 -2 10 -4z m1714 -151 c-4 -8 -8 -15 -10 -15 -2 0
-4 7 -4 15 0 8 4 15 10 15 5 0 7 -7 4 -15z m-1874 -5 c0 -5 -2 -10 -4 -10 -3
0 -8 5 -11 10 -3 6 -1 10 4 10 6 0 11 -4 11 -10z m-5122 -55 c-3 -3 -9 2 -12
12 -6 14 -5 15 5 6 7 -7 10 -15 7 -18z m6933 -8 c-10 -9 -11 -8 -5 6 3 10 9
15 12 12 3 -3 0 -11 -7 -18z m4 -56 c-3 -6 -11 -11 -16 -11 -5 0 -4 6 3 14 14
16 24 13 13 -3z m-2060 -41 c-3 -5 -11 -10 -16 -10 -6 0 -7 5 -4 10 3 6 11 10
16 10 6 0 7 -4 4 -10z m1983 -54 c-7 -8 -15 -12 -17 -11 -5 6 10 25 20 25 5 0
4 -6 -3 -14z m-6790 -81 c-3 -3 -9 2 -12 12 -6 14 -5 15 5 6 7 -7 10 -15 7
-18z m4032 -185 c-8 -5 -19 -10 -25 -10 -5 0 -3 5 5 10 8 5 20 10 25 10 6 0 3
-5 -5 -10z m-507 -77 c-13 -2 -33 -2 -45 0 -13 2 -3 4 22 4 25 0 35 -2 23 -4z
m-1006 -10 c-400 -2 -1054 -2 -1455 0 -400 1 -72 2 728 2 800 0 1128 -1 727
-2z m831 0 c-10 -2 -26 -2 -35 0 -10 3 -2 5 17 5 19 0 27 -2 18 -5z m180 -10
c-10 -2 -26 -2 -35 0 -10 3 -2 5 17 5 19 0 27 -2 18 -5z m-151 -9 c-3 -3 -12
-4 -19 -1 -8 3 -5 6 6 6 11 1 17 -2 13 -5z m3103 -58 c0 -3 -4 -8 -10 -11 -5
-3 -10 -1 -10 4 0 6 5 11 10 11 6 0 10 -2 10 -4z m-153 -132 c-3 -3 -12 -4
-19 -1 -8 3 -5 6 6 6 11 1 17 -2 13 -5z m-7 -34 c0 -5 -5 -10 -11 -10 -5 0 -7
5 -4 10 3 6 8 10 11 10 2 0 4 -4 4 -10z m-6071 -70 c0 -10 -3 -8 -9 5 -12 27
-12 43 0 25 5 -8 9 -22 9 -30z m-32 -2 c-3 -8 -6 -5 -6 6 -1 11 2 17 5 13 3
-3 4 -12 1 -19z m5913 -52 c0 -2 -8 -10 -17 -17 -16 -13 -17 -12 -4 4 13 16
21 21 21 13z m-5745 -356 c3 -5 1 -10 -4 -10 -6 0 -11 5 -11 10 0 6 2 10 4 10
3 0 8 -4 11 -10z m12 -42 c-3 -8 -6 -5 -6 6 -1 11 2 17 5 13 3 -3 4 -12 1 -19z
m5013 -82 c0 -2 -7 -7 -16 -10 -8 -3 -12 -2 -9 4 6 10 25 14 25 6z m-260 -86
c-8 -5 -19 -10 -25 -10 -5 0 -3 5 5 10 8 5 20 10 25 10 6 0 3 -5 -5 -10z
m-4651 -100 c0 -10 -3 -8 -9 5 -12 27 -12 43 0 25 5 -8 9 -22 9 -30z m4498 24
c-3 -3 -12 -4 -19 -1 -8 3 -5 6 6 6 11 1 17 -2 13 -5z m-440 -80 c-3 -3 -12
-4 -19 -1 -8 3 -5 6 6 6 11 1 17 -2 13 -5z m-3989 -79 c-3 -3 -9 2 -12 12 -6
14 -5 15 5 6 7 -7 10 -15 7 -18z m3699 9 c-3 -3 -12 -4 -19 -1 -8 3 -5 6 6 6
11 1 17 -2 13 -5z m43 -14 c0 -5 -12 -10 -27 -9 l-28 1 25 8 c14 4 26 8 28 9
1 1 2 -3 2 -9z m-137 -7 c-7 -2 -19 -2 -25 0 -7 3 -2 5 12 5 14 0 19 -2 13 -5z
m0 -20 c-7 -2 -19 -2 -25 0 -7 3 -2 5 12 5 14 0 19 -2 13 -5z m-703 -53 c-8
-5 -19 -10 -25 -10 -5 0 -3 5 5 10 8 5 20 10 25 10 6 0 3 -5 -5 -10z m223 3
c-7 -2 -19 -2 -25 0 -7 3 -2 5 12 5 14 0 19 -2 13 -5z m-90 -10 c-13 -2 -33
-2 -45 0 -13 2 -3 4 22 4 25 0 35 -2 23 -4z"/>
<path d="M26465 21850 c3 -5 11 -10 16 -10 6 0 7 5 4 10 -3 6 -11 10 -16 10
-6 0 -7 -4 -4 -10z"/>
<path d="M16657 18583 c-14 -43 -36 -103 -48 -133 -11 -30 -27 -73 -34 -95 -7
-22 -31 -88 -54 -147 -28 -75 -39 -117 -36 -140 4 -26 3 -28 -3 -8 -8 24 -26
-18 -109 -255 -7 -22 -17 -49 -22 -60 -27 -60 -75 -213 -73 -230 1 -12 -1 -14
-4 -6 -4 8 -16 -13 -29 -50 -13 -35 -40 -109 -60 -164 -20 -55 -42 -118 -50
-140 -8 -22 -15 -47 -15 -57 0 -9 -4 -18 -9 -20 -4 -1 -23 -43 -41 -93 -18
-49 -39 -107 -47 -129 -7 -21 -11 -48 -8 -60 4 -14 3 -17 -3 -8 -14 21 -23
-51 -28 -228 -2 -85 -7 -204 -11 -265 -9 -137 -15 -5047 -7 -5069 6 -15 81
-16 833 -14 l826 3 3 2427 c2 1813 -1 2433 -9 2455 -7 15 -29 75 -49 133 -20
58 -67 186 -103 285 -36 99 -68 191 -72 205 -4 14 -13 39 -20 55 -7 17 -28 73
-46 125 -18 52 -36 100 -39 105 -4 6 -22 53 -39 105 -37 109 -108 305 -122
335 -7 17 -66 182 -131 370 -12 33 -25 62 -30 63 -4 2 -8 10 -8 18 0 17 -33
111 -150 434 -46 124 -89 249 -98 278 -8 28 -18 52 -22 52 -3 0 -18 -35 -33
-77z m50 -15 c-3 -8 -6 -5 -6 6 -1 11 2 17 5 13 3 -3 4 -12 1 -19z m-74 -113
c-3 -9 -8 -14 -10 -11 -3 3 -2 9 2 15 9 16 15 13 8 -4z m-16 -47 c-3 -8 -6 -5
-6 6 -1 11 2 17 5 13 3 -3 4 -12 1 -19z m30 0 c-3 -8 -6 -5 -6 6 -1 11 2 17 5
13 3 -3 4 -12 1 -19z m143 -63 c0 -8 -2 -15 -4 -15 -2 0 -6 7 -10 15 -3 8 -1
15 4 15 6 0 10 -7 10 -15z m-33 -17 c-3 -8 -6 -5 -6 6 -1 11 2 17 5 13 3 -3 4
-12 1 -19z m-197 -98 c0 -5 -5 -10 -11 -10 -5 0 -7 5 -4 10 3 6 8 10 11 10 2
0 4 -4 4 -10z m307 -112 c-3 -8 -6 -5 -6 6 -1 11 2 17 5 13 3 -3 4 -12 1 -19z
m151 -404 c-3 -14 -5 -12 -10 9 -3 19 -2 25 4 19 6 -6 8 -18 6 -28z m86 -240
c3 -8 2 -12 -4 -9 -6 3 -10 10 -10 16 0 14 7 11 14 -7z m47 -217 c-10 -9 -11
-8 -5 6 3 10 9 15 12 12 3 -3 0 -11 -7 -18z m119 -227 c0 -5 -5 -10 -11 -10
-5 0 -7 5 -4 10 3 6 8 10 11 10 2 0 4 -4 4 -10z m-1183 -142 c-3 -8 -6 -5 -6
6 -1 11 2 17 5 13 3 -3 4 -12 1 -19z m-80 -325 c-2 -16 -4 -3 -4 27 0 30 2 43
4 28 2 -16 2 -40 0 -55z m1423 12 c0 -5 -5 -3 -10 5 -5 8 -10 20 -10 25 0 6 5
3 10 -5 5 -8 10 -19 10 -25z m-15 -25 c3 -5 1 -10 -4 -10 -6 0 -11 5 -11 10 0
6 2 10 4 10 3 0 8 -4 11 -10z m72 -192 c-3 -8 -6 -5 -6 6 -1 11 2 17 5 13 3
-3 4 -12 1 -19z m71 -144 c-3 -14 -5 -12 -10 9 -3 19 -2 25 4 19 6 -6 8 -18 6
-28z"/>
</g>
</svg>
